<?xml version="1.0" encoding="UTF-8" standalone="no"?>
<!-- Created with Inkscape (http://www.inkscape.org/) -->

<svg
   width="210mm"
   height="297mm"
   viewBox="0 0 210 297"
   version="1.1"
   id="svg1"
   xml:space="preserve"
   inkscape:version="1.3.2 (091e20e, 2023-11-25)"
   sodipodi:docname="HankelSVD.svg"
   xmlns:inkscape="http://www.inkscape.org/namespaces/inkscape"
   xmlns:sodipodi="http://sodipodi.sourceforge.net/DTD/sodipodi-0.dtd"
   xmlns="http://www.w3.org/2000/svg"
   xmlns:svg="http://www.w3.org/2000/svg"><sodipodi:namedview
     id="namedview1"
     pagecolor="#ffffff"
     bordercolor="#000000"
     borderopacity="0.25"
     inkscape:showpageshadow="2"
     inkscape:pageopacity="0.0"
     inkscape:pagecheckerboard="0"
     inkscape:deskcolor="#d1d1d1"
     inkscape:document-units="mm"
     inkscape:zoom="1.0998004"
     inkscape:cx="1178.8503"
     inkscape:cy="570.55807"
     inkscape:window-width="1920"
     inkscape:window-height="1080"
     inkscape:window-x="0"
     inkscape:window-y="0"
     inkscape:window-maximized="0"
     inkscape:current-layer="g1"><inkscape:page
       x="0"
       y="0"
       width="210"
       height="297"
       id="page1"
       margin="0"
       bleed="0" /><inkscape:page
       x="259.95209"
       y="84.137505"
       width="135.99583"
       height="111.12501"
       id="page2"
       margin="0"
       bleed="0" /></sodipodi:namedview><defs
     id="defs1"><clipPath
       clipPathUnits="userSpaceOnUse"
       id="clipPath2"><path
         d="M 0,0 H 514 V 420 H 0 Z"
         id="path2" /></clipPath></defs><g
     inkscape:label="Layer 1"
     inkscape:groupmode="layer"
     id="layer1" /><g
     id="g1"
     inkscape:groupmode="layer"
     inkscape:label="1"
     transform="matrix(0.26458333,0,0,0.26458334,220.00001,0)"><path
       id="path1"
       d="M 0,0 H 514 V 420 H 0 Z"
       style="fill:#ffffff;fill-opacity:1;fill-rule:nonzero;stroke:none"
       transform="translate(151,318)"
       clip-path="url(#clipPath2)"
       inkscape:export-filename="HankelSVD.png"
       inkscape:export-xdpi="600"
       inkscape:export-ydpi="600" /><path
       id="path3"
       d="M 0,0 H 514 V 420 H 0 Z"
       style="fill:#ffffff;fill-opacity:1;fill-rule:nonzero;stroke:none"
       transform="translate(151,318)" /><path
       id="path4"
       d="M 90,362 H 465 V 31 H 90 Z"
       style="fill:#ffffff;fill-opacity:1;fill-rule:nonzero;stroke:none"
       transform="translate(151,318)" /><path
       id="path5"
       d="M 90,362 H 465"
       style="fill:none;stroke:#262626;stroke-width:0.666667;stroke-linecap:square;stroke-linejoin:round;stroke-miterlimit:10;stroke-dasharray:none;stroke-opacity:1"
       transform="translate(151,318)" /><path
       id="path6"
       d="M 90,31.000013 H 465"
       style="fill:none;stroke:#262626;stroke-width:0.666667;stroke-linecap:square;stroke-linejoin:round;stroke-miterlimit:10;stroke-dasharray:none;stroke-opacity:1"
       transform="translate(151,318)" /><path
       id="path7"
       d="m 90,362 v -3.75"
       style="fill:none;stroke:#262626;stroke-width:0.666667;stroke-linecap:square;stroke-linejoin:round;stroke-miterlimit:10;stroke-dasharray:none;stroke-opacity:1"
       transform="translate(151,318)" /><path
       id="path8"
       d="m 125.71429,362 v -3.75"
       style="fill:none;stroke:#262626;stroke-width:0.666667;stroke-linecap:square;stroke-linejoin:round;stroke-miterlimit:10;stroke-dasharray:none;stroke-opacity:1"
       transform="translate(151,318)" /><path
       id="path9"
       d="m 161.42857,362 v -3.75"
       style="fill:none;stroke:#262626;stroke-width:0.666667;stroke-linecap:square;stroke-linejoin:round;stroke-miterlimit:10;stroke-dasharray:none;stroke-opacity:1"
       transform="translate(151,318)" /><path
       id="path10"
       d="m 197.14285,362 v -3.75"
       style="fill:none;stroke:#262626;stroke-width:0.666667;stroke-linecap:square;stroke-linejoin:round;stroke-miterlimit:10;stroke-dasharray:none;stroke-opacity:1"
       transform="translate(151,318)" /><path
       id="path11"
       d="m 232.85715,362 v -3.75"
       style="fill:none;stroke:#262626;stroke-width:0.666667;stroke-linecap:square;stroke-linejoin:round;stroke-miterlimit:10;stroke-dasharray:none;stroke-opacity:1"
       transform="translate(151,318)" /><path
       id="path12"
       d="m 268.57144,362 v -3.75"
       style="fill:none;stroke:#262626;stroke-width:0.666667;stroke-linecap:square;stroke-linejoin:round;stroke-miterlimit:10;stroke-dasharray:none;stroke-opacity:1"
       transform="translate(151,318)" /><path
       id="path13"
       d="m 304.28571,362 v -3.75"
       style="fill:none;stroke:#262626;stroke-width:0.666667;stroke-linecap:square;stroke-linejoin:round;stroke-miterlimit:10;stroke-dasharray:none;stroke-opacity:1"
       transform="translate(151,318)" /><path
       id="path14"
       d="m 340,362 v -3.75"
       style="fill:none;stroke:#262626;stroke-width:0.666667;stroke-linecap:square;stroke-linejoin:round;stroke-miterlimit:10;stroke-dasharray:none;stroke-opacity:1"
       transform="translate(151,318)" /><path
       id="path15"
       d="m 375.71429,362 v -3.75"
       style="fill:none;stroke:#262626;stroke-width:0.666667;stroke-linecap:square;stroke-linejoin:round;stroke-miterlimit:10;stroke-dasharray:none;stroke-opacity:1"
       transform="translate(151,318)" /><path
       id="path16"
       d="m 411.42856,362 v -3.75"
       style="fill:none;stroke:#262626;stroke-width:0.666667;stroke-linecap:square;stroke-linejoin:round;stroke-miterlimit:10;stroke-dasharray:none;stroke-opacity:1"
       transform="translate(151,318)" /><path
       id="path17"
       d="m 447.14285,362 v -3.75"
       style="fill:none;stroke:#262626;stroke-width:0.666667;stroke-linecap:square;stroke-linejoin:round;stroke-miterlimit:10;stroke-dasharray:none;stroke-opacity:1"
       transform="translate(151,318)" /><path
       id="path18"
       d="m 90,31.000013 v 3.75001"
       style="fill:none;stroke:#262626;stroke-width:0.666667;stroke-linecap:square;stroke-linejoin:round;stroke-miterlimit:10;stroke-dasharray:none;stroke-opacity:1"
       transform="translate(151,318)" /><path
       id="path19"
       d="m 125.71429,31.000013 v 3.75001"
       style="fill:none;stroke:#262626;stroke-width:0.666667;stroke-linecap:square;stroke-linejoin:round;stroke-miterlimit:10;stroke-dasharray:none;stroke-opacity:1"
       transform="translate(151,318)" /><path
       id="path20"
       d="m 161.42857,31.000013 v 3.75001"
       style="fill:none;stroke:#262626;stroke-width:0.666667;stroke-linecap:square;stroke-linejoin:round;stroke-miterlimit:10;stroke-dasharray:none;stroke-opacity:1"
       transform="translate(151,318)" /><path
       id="path21"
       d="m 197.14285,31.000013 v 3.75001"
       style="fill:none;stroke:#262626;stroke-width:0.666667;stroke-linecap:square;stroke-linejoin:round;stroke-miterlimit:10;stroke-dasharray:none;stroke-opacity:1"
       transform="translate(151,318)" /><path
       id="path22"
       d="m 232.85715,31.000013 v 3.75001"
       style="fill:none;stroke:#262626;stroke-width:0.666667;stroke-linecap:square;stroke-linejoin:round;stroke-miterlimit:10;stroke-dasharray:none;stroke-opacity:1"
       transform="translate(151,318)" /><path
       id="path23"
       d="m 268.57144,31.000013 v 3.75001"
       style="fill:none;stroke:#262626;stroke-width:0.666667;stroke-linecap:square;stroke-linejoin:round;stroke-miterlimit:10;stroke-dasharray:none;stroke-opacity:1"
       transform="translate(151,318)" /><path
       id="path24"
       d="m 304.28571,31.000013 v 3.75001"
       style="fill:none;stroke:#262626;stroke-width:0.666667;stroke-linecap:square;stroke-linejoin:round;stroke-miterlimit:10;stroke-dasharray:none;stroke-opacity:1"
       transform="translate(151,318)" /><path
       id="path25"
       d="m 340,31.000013 v 3.75001"
       style="fill:none;stroke:#262626;stroke-width:0.666667;stroke-linecap:square;stroke-linejoin:round;stroke-miterlimit:10;stroke-dasharray:none;stroke-opacity:1"
       transform="translate(151,318)" /><path
       id="path26"
       d="m 375.71429,31.000013 v 3.75001"
       style="fill:none;stroke:#262626;stroke-width:0.666667;stroke-linecap:square;stroke-linejoin:round;stroke-miterlimit:10;stroke-dasharray:none;stroke-opacity:1"
       transform="translate(151,318)" /><path
       id="path27"
       d="m 411.42856,31.000013 v 3.75001"
       style="fill:none;stroke:#262626;stroke-width:0.666667;stroke-linecap:square;stroke-linejoin:round;stroke-miterlimit:10;stroke-dasharray:none;stroke-opacity:1"
       transform="translate(151,318)" /><path
       id="path28"
       d="m 447.14285,31.000013 v 3.75001"
       style="fill:none;stroke:#262626;stroke-width:0.666667;stroke-linecap:square;stroke-linejoin:round;stroke-miterlimit:10;stroke-dasharray:none;stroke-opacity:1"
       transform="translate(151,318)" /><text
       id="text28"
       xml:space="preserve"
       transform="translate(235,706.93332)"
       style="-inkscape-font-specification:Arial;font-family:Arial;font-weight:normal;font-style:normal;font-stretch:normal;font-variant:normal"><tspan
         style="font-variant:normal;font-weight:normal;font-size:21.333px;font-family:Arial;writing-mode:lr-tb;fill:#262626;fill-opacity:1;fill-rule:nonzero;stroke:none;-inkscape-font-specification:Arial;font-style:normal;font-stretch:normal"
         x="0"
         y="0"
         id="tspan28">0</tspan></text><text
       id="text29"
       xml:space="preserve"
       transform="translate(270.71429,706.93332)"
       style="-inkscape-font-specification:Arial;font-family:Arial;font-weight:normal;font-style:normal;font-stretch:normal;font-variant:normal"><tspan
         style="font-variant:normal;font-weight:normal;font-size:21.333px;font-family:Arial;writing-mode:lr-tb;fill:#262626;fill-opacity:1;fill-rule:nonzero;stroke:none;-inkscape-font-specification:Arial;font-style:normal;font-stretch:normal"
         x="0"
         y="0"
         id="tspan29">1</tspan></text><text
       id="text30"
       xml:space="preserve"
       transform="translate(306.42857,706.93332)"
       style="-inkscape-font-specification:Arial;font-family:Arial;font-weight:normal;font-style:normal;font-stretch:normal;font-variant:normal"><tspan
         style="font-variant:normal;font-weight:normal;font-size:21.333px;font-family:Arial;writing-mode:lr-tb;fill:#262626;fill-opacity:1;fill-rule:nonzero;stroke:none;-inkscape-font-specification:Arial;font-style:normal;font-stretch:normal"
         x="0"
         y="0"
         id="tspan30">2</tspan></text><text
       id="text31"
       xml:space="preserve"
       transform="translate(342.14285,706.93332)"
       style="-inkscape-font-specification:Arial;font-family:Arial;font-weight:normal;font-style:normal;font-stretch:normal;font-variant:normal"><tspan
         style="font-variant:normal;font-weight:normal;font-size:21.333px;font-family:Arial;writing-mode:lr-tb;fill:#262626;fill-opacity:1;fill-rule:nonzero;stroke:none;-inkscape-font-specification:Arial;font-style:normal;font-stretch:normal"
         x="0"
         y="0"
         id="tspan31">3</tspan></text><text
       id="text32"
       xml:space="preserve"
       transform="translate(377.85715,706.93332)"
       style="-inkscape-font-specification:Arial;font-family:Arial;font-weight:normal;font-style:normal;font-stretch:normal;font-variant:normal"><tspan
         style="font-variant:normal;font-weight:normal;font-size:21.333px;font-family:Arial;writing-mode:lr-tb;fill:#262626;fill-opacity:1;fill-rule:nonzero;stroke:none;-inkscape-font-specification:Arial;font-style:normal;font-stretch:normal"
         x="0"
         y="0"
         id="tspan32">4</tspan></text><text
       id="text33"
       xml:space="preserve"
       transform="translate(413.57144,706.93332)"
       style="-inkscape-font-specification:Arial;font-family:Arial;font-weight:normal;font-style:normal;font-stretch:normal;font-variant:normal"><tspan
         style="font-variant:normal;font-weight:normal;font-size:21.333px;font-family:Arial;writing-mode:lr-tb;fill:#262626;fill-opacity:1;fill-rule:nonzero;stroke:none;-inkscape-font-specification:Arial;font-style:normal;font-stretch:normal"
         x="0"
         y="0"
         id="tspan33">5</tspan></text><text
       id="text34"
       xml:space="preserve"
       transform="translate(449.28571,706.93332)"
       style="-inkscape-font-specification:Arial;font-family:Arial;font-weight:normal;font-style:normal;font-stretch:normal;font-variant:normal"><tspan
         style="font-variant:normal;font-weight:normal;font-size:21.333px;font-family:Arial;writing-mode:lr-tb;fill:#262626;fill-opacity:1;fill-rule:nonzero;stroke:none;-inkscape-font-specification:Arial;font-style:normal;font-stretch:normal"
         x="0"
         y="0"
         id="tspan34">6</tspan></text><text
       id="text35"
       xml:space="preserve"
       transform="translate(485,706.93332)"
       style="-inkscape-font-specification:Arial;font-family:Arial;font-weight:normal;font-style:normal;font-stretch:normal;font-variant:normal"><tspan
         style="font-variant:normal;font-weight:normal;font-size:21.333px;font-family:Arial;writing-mode:lr-tb;fill:#262626;fill-opacity:1;fill-rule:nonzero;stroke:none;-inkscape-font-specification:Arial;font-style:normal;font-stretch:normal"
         x="0"
         y="0"
         id="tspan35">7</tspan></text><text
       id="text36"
       xml:space="preserve"
       transform="translate(520.71429,706.93332)"
       style="-inkscape-font-specification:Arial;font-family:Arial;font-weight:normal;font-style:normal;font-stretch:normal;font-variant:normal"><tspan
         style="font-variant:normal;font-weight:normal;font-size:21.333px;font-family:Arial;writing-mode:lr-tb;fill:#262626;fill-opacity:1;fill-rule:nonzero;stroke:none;-inkscape-font-specification:Arial;font-style:normal;font-stretch:normal"
         x="0"
         y="0"
         id="tspan36">8</tspan></text><text
       id="text37"
       xml:space="preserve"
       transform="translate(556.42856,706.93332)"
       style="-inkscape-font-specification:Arial;font-family:Arial;font-weight:normal;font-style:normal;font-stretch:normal;font-variant:normal"><tspan
         style="font-variant:normal;font-weight:normal;font-size:21.333px;font-family:Arial;writing-mode:lr-tb;fill:#262626;fill-opacity:1;fill-rule:nonzero;stroke:none;-inkscape-font-specification:Arial;font-style:normal;font-stretch:normal"
         x="0"
         y="0"
         id="tspan37">9</tspan></text><text
       id="text38"
       xml:space="preserve"
       transform="translate(586.14285,706.93332)"
       style="-inkscape-font-specification:Arial;font-family:Arial;font-weight:normal;font-style:normal;font-stretch:normal;font-variant:normal"><tspan
         style="font-variant:normal;font-weight:normal;font-size:21.333px;font-family:Arial;writing-mode:lr-tb;fill:#262626;fill-opacity:1;fill-rule:nonzero;stroke:none;-inkscape-font-specification:Arial;font-style:normal;font-stretch:normal"
         x="0 11.861148"
         y="0"
         sodipodi:role="line"
         id="tspan38">10</tspan></text><text
       id="text39"
       xml:space="preserve"
       transform="translate(375.00018,733.26666)"
       style="-inkscape-font-specification:Arial;font-family:Arial;font-weight:normal;font-style:normal;font-stretch:normal;font-variant:normal"><tspan
         style="font-variant:normal;font-weight:normal;font-size:21.333px;font-family:Arial;writing-mode:lr-tb;fill:#262626;fill-opacity:1;fill-rule:nonzero;stroke:none;-inkscape-font-specification:Arial;font-style:normal;font-stretch:normal"
         x="0 14.229111 28.458221 43.860649 49.791222 68.756256 81.790726 94.825188"
         y="0"
         sodipodi:role="line"
         id="tspan39">SVD mode</tspan></text><path
       id="path39"
       d="M 90,362 V 31.000013"
       style="fill:none;stroke:#262626;stroke-width:0.666667;stroke-linecap:square;stroke-linejoin:round;stroke-miterlimit:10;stroke-dasharray:none;stroke-opacity:1"
       transform="translate(151,318)" /><path
       id="path40"
       d="M 465,362 V 31.000013"
       style="fill:none;stroke:#262626;stroke-width:0.666667;stroke-linecap:square;stroke-linejoin:round;stroke-miterlimit:10;stroke-dasharray:none;stroke-opacity:1"
       transform="translate(151,318)" /><path
       id="path41"
       d="m 90,362 h 3.75"
       style="fill:none;stroke:#262626;stroke-width:0.666667;stroke-linecap:square;stroke-linejoin:round;stroke-miterlimit:10;stroke-dasharray:none;stroke-opacity:1"
       transform="translate(151,318)" /><path
       id="path42"
       d="m 90,270.05557 h 3.75"
       style="fill:none;stroke:#262626;stroke-width:0.666667;stroke-linecap:square;stroke-linejoin:round;stroke-miterlimit:10;stroke-dasharray:none;stroke-opacity:1"
       transform="translate(151,318)" /><path
       id="path43"
       d="m 90,178.11111 h 3.75"
       style="fill:none;stroke:#262626;stroke-width:0.666667;stroke-linecap:square;stroke-linejoin:round;stroke-miterlimit:10;stroke-dasharray:none;stroke-opacity:1"
       transform="translate(151,318)" /><path
       id="path44"
       d="m 90,86.166672 h 3.75"
       style="fill:none;stroke:#262626;stroke-width:0.666667;stroke-linecap:square;stroke-linejoin:round;stroke-miterlimit:10;stroke-dasharray:none;stroke-opacity:1"
       transform="translate(151,318)" /><path
       id="path45"
       d="m 465,362 h -3.74997"
       style="fill:none;stroke:#262626;stroke-width:0.666667;stroke-linecap:square;stroke-linejoin:round;stroke-miterlimit:10;stroke-dasharray:none;stroke-opacity:1"
       transform="translate(151,318)" /><path
       id="path46"
       d="m 465,270.05557 h -3.74997"
       style="fill:none;stroke:#262626;stroke-width:0.666667;stroke-linecap:square;stroke-linejoin:round;stroke-miterlimit:10;stroke-dasharray:none;stroke-opacity:1"
       transform="translate(151,318)" /><path
       id="path47"
       d="m 465,178.11111 h -3.74997"
       style="fill:none;stroke:#262626;stroke-width:0.666667;stroke-linecap:square;stroke-linejoin:round;stroke-miterlimit:10;stroke-dasharray:none;stroke-opacity:1"
       transform="translate(151,318)" /><path
       id="path48"
       d="m 465,86.166672 h -3.74997"
       style="fill:none;stroke:#262626;stroke-width:0.666667;stroke-linecap:square;stroke-linejoin:round;stroke-miterlimit:10;stroke-dasharray:none;stroke-opacity:1"
       transform="translate(151,318)" /><text
       id="text48"
       xml:space="preserve"
       transform="translate(222.06667,687.5)"
       style="-inkscape-font-specification:Arial;font-family:Arial;font-weight:normal;font-style:normal;font-stretch:normal;font-variant:normal"><tspan
         style="font-variant:normal;font-weight:normal;font-size:21.333px;font-family:Arial;writing-mode:lr-tb;fill:#262626;fill-opacity:1;fill-rule:nonzero;stroke:none;-inkscape-font-specification:Arial;font-style:normal;font-stretch:normal"
         x="0"
         y="0"
         id="tspan48">0</tspan></text><text
       id="text49"
       xml:space="preserve"
       transform="translate(180.06667,595.55557)"
       style="-inkscape-font-specification:Arial;font-family:Arial;font-weight:normal;font-style:normal;font-stretch:normal;font-variant:normal"><tspan
         style="font-variant:normal;font-weight:normal;font-size:21.333px;font-family:Arial;writing-mode:lr-tb;fill:#262626;fill-opacity:1;fill-rule:nonzero;stroke:none;-inkscape-font-specification:Arial;font-style:normal;font-stretch:normal"
         x="0 11.861148 17.791721 29.65287 41.514019"
         y="0"
         sodipodi:role="line"
         id="tspan49">0.005</tspan></text><text
       id="text50"
       xml:space="preserve"
       transform="translate(192.06667,503.61111)"
       style="-inkscape-font-specification:Arial;font-family:Arial;font-weight:normal;font-style:normal;font-stretch:normal;font-variant:normal"><tspan
         style="font-variant:normal;font-weight:normal;font-size:21.333px;font-family:Arial;writing-mode:lr-tb;fill:#262626;fill-opacity:1;fill-rule:nonzero;stroke:none;-inkscape-font-specification:Arial;font-style:normal;font-stretch:normal"
         x="0 11.861148 17.791721 29.65287"
         y="0"
         sodipodi:role="line"
         id="tspan50">0.01</tspan></text><text
       id="text51"
       xml:space="preserve"
       transform="translate(180.06667,411.66667)"
       style="-inkscape-font-specification:Arial;font-family:Arial;font-weight:normal;font-style:normal;font-stretch:normal;font-variant:normal"><tspan
         style="font-variant:normal;font-weight:normal;font-size:21.333px;font-family:Arial;writing-mode:lr-tb;fill:#262626;fill-opacity:1;fill-rule:nonzero;stroke:none;-inkscape-font-specification:Arial;font-style:normal;font-stretch:normal"
         x="0 11.861148 17.791721 29.65287 41.514019"
         y="0"
         sodipodi:role="line"
         id="tspan51">0.015</tspan></text><text
       id="text52"
       xml:space="preserve"
       transform="rotate(-90,369.53325,198.46659)"
       style="-inkscape-font-specification:Arial;font-family:Arial;font-weight:normal;font-style:normal;font-stretch:normal;font-variant:normal"><tspan
         style="font-variant:normal;font-weight:normal;font-size:21.333px;font-family:Arial;writing-mode:lr-tb;fill:#262626;fill-opacity:1;fill-rule:nonzero;stroke:none;-inkscape-font-specification:Arial;font-style:normal;font-stretch:normal"
         x="0 17.77039 29.631536 42.666 55.700462 61.631039 68.734924 81.769386 94.803848"
         y="0"
         sodipodi:role="line"
         id="tspan52">Magnitude</tspan></text><path
       id="path52"
       d="m 0,-6.6666666 c 3.6818983,0 6.6666666,2.9847683 6.6666666,6.6666666 V 0 C 6.6666666,3.6818983 3.6818983,6.6666666 0,6.6666666 -3.6818983,6.6666666 -6.6666666,3.6818983 -6.6666666,0 c 0,-3.6818983 2.9847683,-6.6666666 6.6666666,-6.6666666 z m 0,-2.6666668 c -5.1546577,0 -9.3333334,4.1786757 -9.3333334,9.3333334 0,5.1546577 4.1786757,9.3333334 9.3333334,9.3333334 C 5.1546577,9.3333334 9.3333334,5.1546577 9.3333334,0 V 0 C 9.3333334,-5.1546577 5.1546577,-9.3333334 0,-9.3333334 Z"
       style="fill:#ff0000;fill-opacity:1;fill-rule:nonzero;stroke:none"
       transform="translate(276.71429,384.96106)" /><path
       id="path53"
       d="m 0,-6.6666666 c 3.6818983,0 6.6666666,2.9847683 6.6666666,6.6666666 V 0 C 6.6666666,3.6818983 3.6818983,6.6666666 0,6.6666666 -3.6818983,6.6666666 -6.6666666,3.6818983 -6.6666666,0 c 0,-3.6818983 2.9847683,-6.6666666 6.6666666,-6.6666666 z m 0,-2.6666668 c -5.1546577,0 -9.3333334,4.1786757 -9.3333334,9.3333334 0,5.1546577 4.1786757,9.3333334 9.3333334,9.3333334 C 5.1546577,9.3333334 9.3333334,5.1546577 9.3333334,0 V 0 C 9.3333334,-5.1546577 5.1546577,-9.3333334 0,-9.3333334 Z"
       style="fill:#ff0000;fill-opacity:1;fill-rule:nonzero;stroke:none"
       transform="translate(312.42857,534.43805)" /><path
       id="path54"
       d="m 0,-6.6666666 c 3.6818983,0 6.6666666,2.9847683 6.6666666,6.6666666 V 0 C 6.6666666,3.6818983 3.6818983,6.6666666 0,6.6666666 -3.6818983,6.6666666 -6.6666666,3.6818983 -6.6666666,0 c 0,-3.6818983 2.9847683,-6.6666666 6.6666666,-6.6666666 z m 0,-2.6666668 c -5.1546577,0 -9.3333334,4.1786757 -9.3333334,9.3333334 0,5.1546577 4.1786757,9.3333334 9.3333334,9.3333334 C 5.1546577,9.3333334 9.3333334,5.1546577 9.3333334,0 V 0 C 9.3333334,-5.1546577 5.1546577,-9.3333334 0,-9.3333334 Z"
       style="fill:#ff0000;fill-opacity:1;fill-rule:nonzero;stroke:none"
       transform="translate(348.14285,600.44656)" /><path
       id="path55"
       d="m 0,-6.6666666 c 3.6818983,0 6.6666666,2.9847683 6.6666666,6.6666666 V 0 C 6.6666666,3.6818983 3.6818983,6.6666666 0,6.6666666 -3.6818983,6.6666666 -6.6666666,3.6818983 -6.6666666,0 c 0,-3.6818983 2.9847683,-6.6666666 6.6666666,-6.6666666 z m 0,-2.6666668 c -5.1546577,0 -9.3333334,4.1786757 -9.3333334,9.3333334 0,5.1546577 4.1786757,9.3333334 9.3333334,9.3333334 C 5.1546577,9.3333334 9.3333334,5.1546577 9.3333334,0 V 0 C 9.3333334,-5.1546577 5.1546577,-9.3333334 0,-9.3333334 Z"
       style="fill:#ff0000;fill-opacity:1;fill-rule:nonzero;stroke:none"
       transform="translate(383.85715,609.93903)" /><path
       id="path56"
       d="m 0,-6.6666666 c 3.6818983,0 6.6666666,2.9847683 6.6666666,6.6666666 V 0 C 6.6666666,3.6818983 3.6818983,6.6666666 0,6.6666666 -3.6818983,6.6666666 -6.6666666,3.6818983 -6.6666666,0 c 0,-3.6818983 2.9847683,-6.6666666 6.6666666,-6.6666666 z m 0,-2.6666668 c -5.1546577,0 -9.3333334,4.1786757 -9.3333334,9.3333334 0,5.1546577 4.1786757,9.3333334 9.3333334,9.3333334 C 5.1546577,9.3333334 9.3333334,5.1546577 9.3333334,0 V 0 C 9.3333334,-5.1546577 5.1546577,-9.3333334 0,-9.3333334 Z"
       style="fill:#ff0000;fill-opacity:1;fill-rule:nonzero;stroke:none"
       transform="translate(419.57144,623.99326)" /><path
       id="path57"
       d="m 0,-6.6666666 c 3.6818983,0 6.6666666,2.9847683 6.6666666,6.6666666 V 0 C 6.6666666,3.6818983 3.6818983,6.6666666 0,6.6666666 -3.6818983,6.6666666 -6.6666666,3.6818983 -6.6666666,0 c 0,-3.6818983 2.9847683,-6.6666666 6.6666666,-6.6666666 z m 0,-2.6666668 c -5.1546577,0 -9.3333334,4.1786757 -9.3333334,9.3333334 0,5.1546577 4.1786757,9.3333334 9.3333334,9.3333334 C 5.1546577,9.3333334 9.3333334,5.1546577 9.3333334,0 V 0 C 9.3333334,-5.1546577 5.1546577,-9.3333334 0,-9.3333334 Z"
       style="fill:#ff0000;fill-opacity:1;fill-rule:nonzero;stroke:none"
       transform="translate(455.28571,633.71085)" /><path
       id="path58"
       d="m 0,-6.6666666 c 3.6818983,0 6.6666666,2.9847683 6.6666666,6.6666666 V 0 C 6.6666666,3.6818983 3.6818983,6.6666666 0,6.6666666 -3.6818983,6.6666666 -6.6666666,3.6818983 -6.6666666,0 c 0,-3.6818983 2.9847683,-6.6666666 6.6666666,-6.6666666 z m 0,-2.6666668 c -5.1546577,0 -9.3333334,4.1786757 -9.3333334,9.3333334 0,5.1546577 4.1786757,9.3333334 9.3333334,9.3333334 C 5.1546577,9.3333334 9.3333334,5.1546577 9.3333334,0 V 0 C 9.3333334,-5.1546577 5.1546577,-9.3333334 0,-9.3333334 Z"
       style="fill:#ff0000;fill-opacity:1;fill-rule:nonzero;stroke:none"
       transform="translate(491,646.4866)" /><path
       id="path59"
       d="m 0,-6.6666666 c 3.6818983,0 6.6666666,2.9847683 6.6666666,6.6666666 V 0 C 6.6666666,3.6818983 3.6818983,6.6666666 0,6.6666666 -3.6818983,6.6666666 -6.6666666,3.6818983 -6.6666666,0 c 0,-3.6818983 2.9847683,-6.6666666 6.6666666,-6.6666666 z m 0,-2.6666668 c -5.1546577,0 -9.3333334,4.1786757 -9.3333334,9.3333334 0,5.1546577 4.1786757,9.3333334 9.3333334,9.3333334 C 5.1546577,9.3333334 9.3333334,5.1546577 9.3333334,0 V 0 C 9.3333334,-5.1546577 5.1546577,-9.3333334 0,-9.3333334 Z"
       style="fill:#ff0000;fill-opacity:1;fill-rule:nonzero;stroke:none"
       transform="translate(526.71429,657.83557)" /><path
       id="path60"
       d="m 0,-6.6666666 c 3.6818983,0 6.6666666,2.9847683 6.6666666,6.6666666 V 0 C 6.6666666,3.6818983 3.6818983,6.6666666 0,6.6666666 -3.6818983,6.6666666 -6.6666666,3.6818983 -6.6666666,0 c 0,-3.6818983 2.9847683,-6.6666666 6.6666666,-6.6666666 z m 0,-2.6666668 c -5.1546577,0 -9.3333334,4.1786757 -9.3333334,9.3333334 0,5.1546577 4.1786757,9.3333334 9.3333334,9.3333334 C 5.1546577,9.3333334 9.3333334,5.1546577 9.3333334,0 V 0 C 9.3333334,-5.1546577 5.1546577,-9.3333334 0,-9.3333334 Z"
       style="fill:#ff0000;fill-opacity:1;fill-rule:nonzero;stroke:none"
       transform="translate(562.42856,668.6279)" /><path
       id="path61"
       d="m 0,-6.6666666 c 3.6818983,0 6.6666666,2.9847683 6.6666666,6.6666666 V 0 C 6.6666666,3.6818983 3.6818983,6.6666666 0,6.6666666 -3.6818983,6.6666666 -6.6666666,3.6818983 -6.6666666,0 c 0,-3.6818983 2.9847683,-6.6666666 6.6666666,-6.6666666 z m 0,-2.6666668 c -5.1546577,0 -9.3333334,4.1786757 -9.3333334,9.3333334 0,5.1546577 4.1786757,9.3333334 9.3333334,9.3333334 C 5.1546577,9.3333334 9.3333334,5.1546577 9.3333334,0 V 0 C 9.3333334,-5.1546577 5.1546577,-9.3333334 0,-9.3333334 Z"
       style="fill:#ff0000;fill-opacity:1;fill-rule:nonzero;stroke:none"
       transform="translate(598.14285,672.43967)" /></g></svg>
